<?xml version="1.0" encoding="iso-8859-1"?>
<!-- Generator: Adobe Illustrator 19.0.0, SVG Export Plug-In . SVG Version: 6.00 Build 0)  -->
<svg version="1.1" id="Capa_1" xmlns="http://www.w3.org/2000/svg" xmlns:xlink="http://www.w3.org/1999/xlink" x="0px" y="0px"
	 viewBox="0 0 512 512" style="enable-background:new 0 0 512 512;" xml:space="preserve">
<circle style="fill:#ACECFD;" cx="256" cy="256" r="256"/>
<path style="fill:#68B7EA;" d="M512,256c0-4.757-0.14-9.481-0.396-14.174L358.528,88.75l-205.056,334.5l88.354,88.354
	C246.519,511.86,251.243,512,256,512C397.385,512,512,397.385,512,256z"/>
<polygon style="fill:#6C819F;" points="256,423.25 358.528,423.25 358.528,339.905 242.923,326.828 "/>
<polygon style="fill:#A1B8D8;" points="153.472,339.905 153.472,423.25 256,423.25 256,326.828 "/>
<polygon style="fill:#384C6C;" points="266.418,371.778 256,371.778 249.462,381.577 256,391.377 266.418,391.377 "/>
<rect x="245.58" y="371.78" style="fill:#6C819F;" width="10.418" height="19.6"/>
<polygon style="fill:#384C6C;" points="256,88.75 242.923,223.334 256,339.905 358.528,339.905 358.528,88.75 "/>
<rect x="153.47" y="88.75" style="fill:#6C819F;" width="102.53" height="251.16"/>
<path style="fill:#D6E6FD;" d="M302.492,246.797c0-20.345-13.073-37.626-31.273-43.93c9.491-5.332,15.907-15.489,15.907-27.149
	c0-17.19-13.936-31.126-31.126-31.126l-13.077,79.605L256,284.064h46.492V246.797z"/>
<path style="fill:#F4F4FF;" d="M224.874,175.718c0,11.661,6.416,21.817,15.907,27.149c-18.2,6.305-31.273,23.586-31.273,43.93
	v37.266H256V144.592C238.81,144.592,224.874,158.527,224.874,175.718z"/>
<g>
</g>
<g>
</g>
<g>
</g>
<g>
</g>
<g>
</g>
<g>
</g>
<g>
</g>
<g>
</g>
<g>
</g>
<g>
</g>
<g>
</g>
<g>
</g>
<g>
</g>
<g>
</g>
<g>
</g>
</svg>
